<svg xmlns="http://www.w3.org/2000/svg" viewBox="0 0 220 110" fill="none">
  <path d="M18 78c8 10 22 14 36 10" stroke="#D7E8C8" stroke-width="6" stroke-linecap="round"/>
  <rect x="28" y="28" width="150" height="52" rx="14" fill="#1C8C42"/>
  <rect x="168" y="40" width="28" height="28" rx="8" fill="#E8F6EC"/>
  <path d="M176 48h12l6 8h-18v-8Z" fill="#B7DFF0"/>
  <rect x="40" y="38" width="28" height="18" rx="4" fill="#E7F7FF"/>
  <rect x="74" y="38" width="28" height="18" rx="4" fill="#E7F7FF"/>
  <rect x="108" y="38" width="28" height="18" rx="4" fill="#E7F7FF"/>
  <rect x="40" y="62" width="96" height="8" rx="3" fill="#F4C430"/>
  <text x="52" y="69" fill="#1C8C42" font-size="6" font-family="Arial, sans-serif" font-weight="700">EV Yatayat</text>
  <circle cx="62" cy="84" r="9" fill="#243028"/>
  <circle cx="62" cy="84" r="4" fill="#E8EEF0"/>
  <circle cx="150" cy="84" r="9" fill="#243028"/>
  <circle cx="150" cy="84" r="4" fill="#E8EEF0"/>
  <rect x="46" y="22" width="18" height="8" rx="2" fill="#8FD4A8"/>
</svg>
